<mxfile host="Electron" modified="2025-01-09T02:08:02.362Z" agent="Mozilla/5.0 (Windows NT 10.0; Win64; x64) AppleWebKit/537.36 (KHTML, like Gecko) draw.io/21.2.1 Chrome/112.0.5615.87 Electron/24.1.2 Safari/537.36" etag="cryZfFwvckDyJwxLc_g2" version="21.2.1" type="device">
  <diagram name="Page-1" id="vds6ba3Mt8Y_in476W5S">
    <mxGraphModel dx="2922" dy="2312" grid="1" gridSize="10" guides="1" tooltips="1" connect="1" arrows="1" fold="1" page="1" pageScale="1" pageWidth="850" pageHeight="1100" math="0" shadow="0">
      <root>
        <mxCell id="0" />
        <mxCell id="1" parent="0" />
        <mxCell id="GSaZ2mc84zrKEOpVeXlv-113" value="" style="rounded=0;whiteSpace=wrap;html=1;" vertex="1" parent="1">
          <mxGeometry x="-280" y="-40" width="1330" height="1060" as="geometry" />
        </mxCell>
        <mxCell id="GSaZ2mc84zrKEOpVeXlv-5" style="edgeStyle=orthogonalEdgeStyle;rounded=0;orthogonalLoop=1;jettySize=auto;html=1;exitX=0.5;exitY=1;exitDx=0;exitDy=0;entryX=0.5;entryY=0;entryDx=0;entryDy=0;fillColor=#dae8fc;strokeColor=#6c8ebf;strokeWidth=2;" edge="1" parent="1" source="GSaZ2mc84zrKEOpVeXlv-1" target="GSaZ2mc84zrKEOpVeXlv-2">
          <mxGeometry relative="1" as="geometry" />
        </mxCell>
        <mxCell id="GSaZ2mc84zrKEOpVeXlv-1" value="Search Movie" style="rounded=1;whiteSpace=wrap;html=1;fillColor=#dae8fc;strokeColor=#6c8ebf;" vertex="1" parent="1">
          <mxGeometry x="40" y="90" width="120" height="60" as="geometry" />
        </mxCell>
        <mxCell id="GSaZ2mc84zrKEOpVeXlv-6" style="edgeStyle=orthogonalEdgeStyle;rounded=0;orthogonalLoop=1;jettySize=auto;html=1;exitX=1;exitY=0.5;exitDx=0;exitDy=0;entryX=0;entryY=0.5;entryDx=0;entryDy=0;fillColor=#dae8fc;strokeColor=#6c8ebf;strokeWidth=2;" edge="1" parent="1" source="GSaZ2mc84zrKEOpVeXlv-2" target="GSaZ2mc84zrKEOpVeXlv-3">
          <mxGeometry relative="1" as="geometry" />
        </mxCell>
        <mxCell id="GSaZ2mc84zrKEOpVeXlv-7" style="edgeStyle=orthogonalEdgeStyle;rounded=0;orthogonalLoop=1;jettySize=auto;html=1;exitX=1;exitY=0.5;exitDx=0;exitDy=0;entryX=0;entryY=0.75;entryDx=0;entryDy=0;fillColor=#dae8fc;strokeColor=#6c8ebf;strokeWidth=2;" edge="1" parent="1" source="GSaZ2mc84zrKEOpVeXlv-2" target="GSaZ2mc84zrKEOpVeXlv-4">
          <mxGeometry relative="1" as="geometry" />
        </mxCell>
        <mxCell id="GSaZ2mc84zrKEOpVeXlv-2" value="List of &lt;br&gt;Search Result" style="rounded=1;whiteSpace=wrap;html=1;fillColor=#dae8fc;strokeColor=#6c8ebf;" vertex="1" parent="1">
          <mxGeometry x="40" y="210" width="120" height="60" as="geometry" />
        </mxCell>
        <mxCell id="GSaZ2mc84zrKEOpVeXlv-8" value="Click&lt;br&gt;Movie" style="text;html=1;strokeColor=none;fillColor=none;align=center;verticalAlign=middle;whiteSpace=wrap;rounded=0;" vertex="1" parent="1">
          <mxGeometry x="190" y="240" width="60" height="30" as="geometry" />
        </mxCell>
        <mxCell id="GSaZ2mc84zrKEOpVeXlv-18" style="edgeStyle=orthogonalEdgeStyle;rounded=0;orthogonalLoop=1;jettySize=auto;html=1;exitX=0.5;exitY=1;exitDx=0;exitDy=0;entryX=0.5;entryY=0;entryDx=0;entryDy=0;" edge="1" parent="1" source="GSaZ2mc84zrKEOpVeXlv-9" target="GSaZ2mc84zrKEOpVeXlv-11">
          <mxGeometry relative="1" as="geometry">
            <Array as="points">
              <mxPoint x="100" y="300" />
              <mxPoint x="100" y="300" />
            </Array>
          </mxGeometry>
        </mxCell>
        <mxCell id="GSaZ2mc84zrKEOpVeXlv-26" style="edgeStyle=orthogonalEdgeStyle;rounded=0;orthogonalLoop=1;jettySize=auto;html=1;exitX=0.5;exitY=1;exitDx=0;exitDy=0;entryX=1;entryY=0.25;entryDx=0;entryDy=0;" edge="1" parent="1" source="GSaZ2mc84zrKEOpVeXlv-9" target="GSaZ2mc84zrKEOpVeXlv-13">
          <mxGeometry relative="1" as="geometry">
            <Array as="points">
              <mxPoint x="100" y="310" />
              <mxPoint x="180" y="310" />
              <mxPoint x="180" y="485" />
            </Array>
          </mxGeometry>
        </mxCell>
        <mxCell id="GSaZ2mc84zrKEOpVeXlv-9" value="index.html" style="swimlane;whiteSpace=wrap;html=1;fillColor=#dae8fc;strokeColor=#6c8ebf;glass=1;rounded=1;" vertex="1" parent="1">
          <mxGeometry x="20" y="50" width="160" height="240" as="geometry" />
        </mxCell>
        <mxCell id="GSaZ2mc84zrKEOpVeXlv-20" style="edgeStyle=orthogonalEdgeStyle;rounded=0;orthogonalLoop=1;jettySize=auto;html=1;exitX=0.5;exitY=1;exitDx=0;exitDy=0;entryX=0.5;entryY=0;entryDx=0;entryDy=0;" edge="1" parent="1" source="GSaZ2mc84zrKEOpVeXlv-10" target="GSaZ2mc84zrKEOpVeXlv-12">
          <mxGeometry relative="1" as="geometry">
            <Array as="points">
              <mxPoint x="460" y="310" />
              <mxPoint x="280" y="310" />
            </Array>
          </mxGeometry>
        </mxCell>
        <mxCell id="GSaZ2mc84zrKEOpVeXlv-22" style="edgeStyle=orthogonalEdgeStyle;rounded=0;orthogonalLoop=1;jettySize=auto;html=1;exitX=0.5;exitY=1;exitDx=0;exitDy=0;entryX=0.5;entryY=0;entryDx=0;entryDy=0;" edge="1" parent="1" source="GSaZ2mc84zrKEOpVeXlv-10" target="GSaZ2mc84zrKEOpVeXlv-14">
          <mxGeometry relative="1" as="geometry">
            <Array as="points">
              <mxPoint x="460" y="300" />
              <mxPoint x="460" y="300" />
            </Array>
          </mxGeometry>
        </mxCell>
        <mxCell id="GSaZ2mc84zrKEOpVeXlv-23" style="edgeStyle=orthogonalEdgeStyle;rounded=0;orthogonalLoop=1;jettySize=auto;html=1;exitX=0.5;exitY=1;exitDx=0;exitDy=0;entryX=0.5;entryY=0;entryDx=0;entryDy=0;" edge="1" parent="1" source="GSaZ2mc84zrKEOpVeXlv-10" target="GSaZ2mc84zrKEOpVeXlv-15">
          <mxGeometry relative="1" as="geometry">
            <Array as="points">
              <mxPoint x="460" y="310" />
              <mxPoint x="640" y="310" />
            </Array>
          </mxGeometry>
        </mxCell>
        <mxCell id="GSaZ2mc84zrKEOpVeXlv-25" style="edgeStyle=orthogonalEdgeStyle;rounded=0;orthogonalLoop=1;jettySize=auto;html=1;exitX=0.5;exitY=1;exitDx=0;exitDy=0;entryX=0;entryY=0.5;entryDx=0;entryDy=0;" edge="1" parent="1" source="GSaZ2mc84zrKEOpVeXlv-10" target="GSaZ2mc84zrKEOpVeXlv-17">
          <mxGeometry relative="1" as="geometry">
            <Array as="points">
              <mxPoint x="460" y="310" />
              <mxPoint x="560" y="310" />
              <mxPoint x="560" y="500" />
            </Array>
          </mxGeometry>
        </mxCell>
        <mxCell id="GSaZ2mc84zrKEOpVeXlv-27" style="edgeStyle=orthogonalEdgeStyle;rounded=0;orthogonalLoop=1;jettySize=auto;html=1;exitX=0.5;exitY=1;exitDx=0;exitDy=0;entryX=0.5;entryY=0;entryDx=0;entryDy=0;" edge="1" parent="1" source="GSaZ2mc84zrKEOpVeXlv-10" target="GSaZ2mc84zrKEOpVeXlv-16">
          <mxGeometry relative="1" as="geometry">
            <Array as="points">
              <mxPoint x="460" y="310" />
              <mxPoint x="369" y="310" />
            </Array>
          </mxGeometry>
        </mxCell>
        <mxCell id="GSaZ2mc84zrKEOpVeXlv-10" value="movieDetails.html" style="swimlane;whiteSpace=wrap;html=1;fillColor=#dae8fc;strokeColor=#6c8ebf;rounded=1;glass=1;shadow=0;" vertex="1" parent="1">
          <mxGeometry x="380.5" y="50" width="159" height="240" as="geometry" />
        </mxCell>
        <mxCell id="GSaZ2mc84zrKEOpVeXlv-3" value="Selected&lt;br&gt;Movie Details" style="rounded=1;whiteSpace=wrap;html=1;fillColor=#dae8fc;strokeColor=#6c8ebf;" vertex="1" parent="GSaZ2mc84zrKEOpVeXlv-10">
          <mxGeometry x="20" y="40" width="120" height="60" as="geometry" />
        </mxCell>
        <mxCell id="GSaZ2mc84zrKEOpVeXlv-107" style="edgeStyle=orthogonalEdgeStyle;rounded=0;orthogonalLoop=1;jettySize=auto;html=1;exitX=0;exitY=0.25;exitDx=0;exitDy=0;entryX=0;entryY=0.5;entryDx=0;entryDy=0;fillColor=#dae8fc;strokeColor=#6c8ebf;strokeWidth=2;" edge="1" parent="GSaZ2mc84zrKEOpVeXlv-10" source="GSaZ2mc84zrKEOpVeXlv-4" target="GSaZ2mc84zrKEOpVeXlv-3">
          <mxGeometry relative="1" as="geometry">
            <Array as="points">
              <mxPoint x="-20" y="160" />
              <mxPoint x="-20" y="70" />
            </Array>
          </mxGeometry>
        </mxCell>
        <mxCell id="GSaZ2mc84zrKEOpVeXlv-4" value="Movies Similar to &lt;br&gt;Selected Movie by &lt;br&gt;various Parameters" style="rounded=1;whiteSpace=wrap;html=1;fillColor=#dae8fc;strokeColor=#6c8ebf;" vertex="1" parent="GSaZ2mc84zrKEOpVeXlv-10">
          <mxGeometry x="20" y="145" width="120" height="60" as="geometry" />
        </mxCell>
        <mxCell id="GSaZ2mc84zrKEOpVeXlv-31" style="edgeStyle=orthogonalEdgeStyle;rounded=0;orthogonalLoop=1;jettySize=auto;html=1;exitX=0;exitY=0.5;exitDx=0;exitDy=0;entryX=0;entryY=0.25;entryDx=0;entryDy=0;" edge="1" parent="1" source="GSaZ2mc84zrKEOpVeXlv-11" target="GSaZ2mc84zrKEOpVeXlv-29">
          <mxGeometry relative="1" as="geometry">
            <Array as="points">
              <mxPoint y="400" />
              <mxPoint y="665" />
            </Array>
          </mxGeometry>
        </mxCell>
        <mxCell id="GSaZ2mc84zrKEOpVeXlv-11" value="/search-by-name" style="rounded=1;whiteSpace=wrap;html=1;fillColor=#d5e8d4;strokeColor=#82b366;" vertex="1" parent="1">
          <mxGeometry x="40" y="370" width="120" height="60" as="geometry" />
        </mxCell>
        <mxCell id="GSaZ2mc84zrKEOpVeXlv-35" style="edgeStyle=orthogonalEdgeStyle;rounded=0;orthogonalLoop=1;jettySize=auto;html=1;exitX=0.5;exitY=1;exitDx=0;exitDy=0;entryX=0.5;entryY=0;entryDx=0;entryDy=0;" edge="1" parent="1" source="GSaZ2mc84zrKEOpVeXlv-12" target="GSaZ2mc84zrKEOpVeXlv-33">
          <mxGeometry relative="1" as="geometry" />
        </mxCell>
        <mxCell id="GSaZ2mc84zrKEOpVeXlv-12" value="/search-by-person" style="rounded=1;whiteSpace=wrap;html=1;fillColor=#d5e8d4;strokeColor=#82b366;" vertex="1" parent="1">
          <mxGeometry x="220" y="370" width="120" height="60" as="geometry" />
        </mxCell>
        <mxCell id="GSaZ2mc84zrKEOpVeXlv-32" style="edgeStyle=orthogonalEdgeStyle;rounded=0;orthogonalLoop=1;jettySize=auto;html=1;exitX=1;exitY=0.75;exitDx=0;exitDy=0;entryX=1;entryY=0.25;entryDx=0;entryDy=0;" edge="1" parent="1" source="GSaZ2mc84zrKEOpVeXlv-13" target="GSaZ2mc84zrKEOpVeXlv-30">
          <mxGeometry relative="1" as="geometry" />
        </mxCell>
        <mxCell id="GSaZ2mc84zrKEOpVeXlv-13" value="/search-by-keyword" style="rounded=1;whiteSpace=wrap;html=1;fillColor=#d5e8d4;strokeColor=#82b366;" vertex="1" parent="1">
          <mxGeometry x="40" y="470" width="120" height="60" as="geometry" />
        </mxCell>
        <mxCell id="GSaZ2mc84zrKEOpVeXlv-42" style="edgeStyle=orthogonalEdgeStyle;rounded=0;orthogonalLoop=1;jettySize=auto;html=1;exitX=0.5;exitY=1;exitDx=0;exitDy=0;entryX=0.5;entryY=0;entryDx=0;entryDy=0;" edge="1" parent="1" source="GSaZ2mc84zrKEOpVeXlv-14" target="GSaZ2mc84zrKEOpVeXlv-37">
          <mxGeometry relative="1" as="geometry" />
        </mxCell>
        <mxCell id="GSaZ2mc84zrKEOpVeXlv-14" value="/search-by-collection" style="rounded=1;whiteSpace=wrap;html=1;fillColor=#d5e8d4;strokeColor=#82b366;" vertex="1" parent="1">
          <mxGeometry x="400" y="370" width="120" height="60" as="geometry" />
        </mxCell>
        <mxCell id="GSaZ2mc84zrKEOpVeXlv-46" style="edgeStyle=orthogonalEdgeStyle;rounded=0;orthogonalLoop=1;jettySize=auto;html=1;exitX=1;exitY=0.5;exitDx=0;exitDy=0;entryX=1;entryY=0.5;entryDx=0;entryDy=0;" edge="1" parent="1" source="GSaZ2mc84zrKEOpVeXlv-15" target="GSaZ2mc84zrKEOpVeXlv-43">
          <mxGeometry relative="1" as="geometry">
            <Array as="points">
              <mxPoint x="740" y="400" />
              <mxPoint x="740" y="760" />
            </Array>
          </mxGeometry>
        </mxCell>
        <mxCell id="GSaZ2mc84zrKEOpVeXlv-15" value="/search-by-adult&lt;br&gt;-category" style="rounded=1;whiteSpace=wrap;html=1;fillColor=#d5e8d4;strokeColor=#82b366;" vertex="1" parent="1">
          <mxGeometry x="580" y="370" width="120" height="60" as="geometry" />
        </mxCell>
        <mxCell id="GSaZ2mc84zrKEOpVeXlv-41" style="edgeStyle=orthogonalEdgeStyle;rounded=0;orthogonalLoop=1;jettySize=auto;html=1;exitX=0.5;exitY=1;exitDx=0;exitDy=0;entryX=0;entryY=0.25;entryDx=0;entryDy=0;" edge="1" parent="1" source="GSaZ2mc84zrKEOpVeXlv-16" target="GSaZ2mc84zrKEOpVeXlv-38">
          <mxGeometry relative="1" as="geometry" />
        </mxCell>
        <mxCell id="GSaZ2mc84zrKEOpVeXlv-16" value="/search-by-genre" style="rounded=1;whiteSpace=wrap;html=1;fillColor=#d5e8d4;strokeColor=#82b366;" vertex="1" parent="1">
          <mxGeometry x="309" y="470" width="120" height="60" as="geometry" />
        </mxCell>
        <mxCell id="GSaZ2mc84zrKEOpVeXlv-45" style="edgeStyle=orthogonalEdgeStyle;rounded=0;orthogonalLoop=1;jettySize=auto;html=1;exitX=0.5;exitY=1;exitDx=0;exitDy=0;entryX=0.5;entryY=0;entryDx=0;entryDy=0;" edge="1" parent="1" source="GSaZ2mc84zrKEOpVeXlv-17" target="GSaZ2mc84zrKEOpVeXlv-44">
          <mxGeometry relative="1" as="geometry" />
        </mxCell>
        <mxCell id="GSaZ2mc84zrKEOpVeXlv-17" value="/get-movie-details" style="rounded=1;whiteSpace=wrap;html=1;fillColor=#d5e8d4;strokeColor=#82b366;" vertex="1" parent="1">
          <mxGeometry x="580" y="470" width="120" height="60" as="geometry" />
        </mxCell>
        <mxCell id="GSaZ2mc84zrKEOpVeXlv-104" style="edgeStyle=orthogonalEdgeStyle;rounded=0;orthogonalLoop=1;jettySize=auto;html=1;exitX=0;exitY=0.25;exitDx=0;exitDy=0;entryX=1;entryY=0.5;entryDx=0;entryDy=0;" edge="1" parent="1" source="GSaZ2mc84zrKEOpVeXlv-28" target="GSaZ2mc84zrKEOpVeXlv-102">
          <mxGeometry relative="1" as="geometry">
            <Array as="points">
              <mxPoint x="20" y="390" />
              <mxPoint x="-40" y="390" />
              <mxPoint x="-40" y="760" />
            </Array>
          </mxGeometry>
        </mxCell>
        <mxCell id="GSaZ2mc84zrKEOpVeXlv-28" value="endpoint.py" style="swimlane;whiteSpace=wrap;html=1;fillColor=#d5e8d4;strokeColor=#82b366;glass=1;rounded=1;" vertex="1" parent="1">
          <mxGeometry x="20" y="330" width="700" height="220" as="geometry" />
        </mxCell>
        <mxCell id="GSaZ2mc84zrKEOpVeXlv-29" value="getMovieByName" style="rounded=1;whiteSpace=wrap;html=1;fillColor=#f8cecc;strokeColor=#b85450;strokeWidth=2;" vertex="1" parent="1">
          <mxGeometry x="40" y="650" width="120" height="60" as="geometry" />
        </mxCell>
        <mxCell id="GSaZ2mc84zrKEOpVeXlv-30" value="getMovieByKeyWords" style="rounded=1;whiteSpace=wrap;html=1;fillColor=#f8cecc;strokeColor=#b85450;strokeWidth=2;" vertex="1" parent="1">
          <mxGeometry x="40" y="730" width="120" height="60" as="geometry" />
        </mxCell>
        <mxCell id="GSaZ2mc84zrKEOpVeXlv-36" style="edgeStyle=orthogonalEdgeStyle;rounded=0;orthogonalLoop=1;jettySize=auto;html=1;exitX=0.5;exitY=1;exitDx=0;exitDy=0;entryX=0.5;entryY=0;entryDx=0;entryDy=0;fillColor=#f8cecc;strokeColor=#b85450;strokeWidth=2;" edge="1" parent="1" source="GSaZ2mc84zrKEOpVeXlv-33" target="GSaZ2mc84zrKEOpVeXlv-34">
          <mxGeometry relative="1" as="geometry" />
        </mxCell>
        <mxCell id="GSaZ2mc84zrKEOpVeXlv-33" value="getMovieByPerson&lt;br&gt;Basic" style="rounded=1;whiteSpace=wrap;html=1;fillColor=#f8cecc;strokeColor=#b85450;strokeWidth=2;" vertex="1" parent="1">
          <mxGeometry x="220" y="650" width="120" height="60" as="geometry" />
        </mxCell>
        <mxCell id="GSaZ2mc84zrKEOpVeXlv-34" value="getMovieByPerson&lt;br&gt;Basic" style="rounded=1;whiteSpace=wrap;html=1;fillColor=#f8cecc;strokeColor=#b85450;strokeWidth=2;" vertex="1" parent="1">
          <mxGeometry x="220" y="730" width="120" height="60" as="geometry" />
        </mxCell>
        <mxCell id="GSaZ2mc84zrKEOpVeXlv-37" value="getMovieByCollection" style="rounded=1;whiteSpace=wrap;html=1;fillColor=#f8cecc;strokeColor=#b85450;strokeWidth=2;" vertex="1" parent="1">
          <mxGeometry x="400" y="650" width="120" height="60" as="geometry" />
        </mxCell>
        <mxCell id="GSaZ2mc84zrKEOpVeXlv-38" value="getMovieByGenre" style="rounded=1;whiteSpace=wrap;html=1;fillColor=#f8cecc;strokeColor=#b85450;strokeWidth=2;" vertex="1" parent="1">
          <mxGeometry x="400" y="730" width="120" height="60" as="geometry" />
        </mxCell>
        <mxCell id="GSaZ2mc84zrKEOpVeXlv-43" value="getAdultMovies" style="rounded=1;whiteSpace=wrap;html=1;fillColor=#f8cecc;strokeColor=#b85450;strokeWidth=2;" vertex="1" parent="1">
          <mxGeometry x="580" y="730" width="120" height="60" as="geometry" />
        </mxCell>
        <mxCell id="GSaZ2mc84zrKEOpVeXlv-44" value="getMovieDetails" style="rounded=1;whiteSpace=wrap;html=1;fillColor=#f8cecc;strokeColor=#b85450;strokeWidth=2;" vertex="1" parent="1">
          <mxGeometry x="580" y="650" width="120" height="60" as="geometry" />
        </mxCell>
        <mxCell id="GSaZ2mc84zrKEOpVeXlv-49" style="edgeStyle=orthogonalEdgeStyle;rounded=0;orthogonalLoop=1;jettySize=auto;html=1;exitX=0.5;exitY=0;exitDx=0;exitDy=0;entryX=1;entryY=0.75;entryDx=0;entryDy=0;fillColor=#f8cecc;strokeColor=#b85450;strokeWidth=2;" edge="1" parent="1" source="GSaZ2mc84zrKEOpVeXlv-47" target="GSaZ2mc84zrKEOpVeXlv-29">
          <mxGeometry relative="1" as="geometry">
            <Array as="points">
              <mxPoint x="280" y="830" />
              <mxPoint x="190" y="830" />
              <mxPoint x="190" y="695" />
            </Array>
          </mxGeometry>
        </mxCell>
        <mxCell id="GSaZ2mc84zrKEOpVeXlv-50" style="edgeStyle=orthogonalEdgeStyle;rounded=0;orthogonalLoop=1;jettySize=auto;html=1;exitX=0.5;exitY=0;exitDx=0;exitDy=0;entryX=1;entryY=0.75;entryDx=0;entryDy=0;fillColor=#f8cecc;strokeColor=#b85450;strokeWidth=2;" edge="1" parent="1" source="GSaZ2mc84zrKEOpVeXlv-47" target="GSaZ2mc84zrKEOpVeXlv-30">
          <mxGeometry relative="1" as="geometry">
            <Array as="points">
              <mxPoint x="280" y="830" />
              <mxPoint x="190" y="830" />
              <mxPoint x="190" y="775" />
            </Array>
          </mxGeometry>
        </mxCell>
        <mxCell id="GSaZ2mc84zrKEOpVeXlv-51" style="edgeStyle=orthogonalEdgeStyle;rounded=0;orthogonalLoop=1;jettySize=auto;html=1;exitX=0.5;exitY=0;exitDx=0;exitDy=0;entryX=0;entryY=0.5;entryDx=0;entryDy=0;fillColor=#f8cecc;strokeColor=#b85450;strokeWidth=2;" edge="1" parent="1" source="GSaZ2mc84zrKEOpVeXlv-47" target="GSaZ2mc84zrKEOpVeXlv-33">
          <mxGeometry relative="1" as="geometry">
            <Array as="points">
              <mxPoint x="280" y="830" />
              <mxPoint x="190" y="830" />
              <mxPoint x="190" y="680" />
            </Array>
          </mxGeometry>
        </mxCell>
        <mxCell id="GSaZ2mc84zrKEOpVeXlv-52" style="edgeStyle=orthogonalEdgeStyle;rounded=0;orthogonalLoop=1;jettySize=auto;html=1;exitX=0.5;exitY=0;exitDx=0;exitDy=0;entryX=0;entryY=0.5;entryDx=0;entryDy=0;fillColor=#f8cecc;strokeColor=#b85450;strokeWidth=2;" edge="1" parent="1" source="GSaZ2mc84zrKEOpVeXlv-47" target="GSaZ2mc84zrKEOpVeXlv-34">
          <mxGeometry relative="1" as="geometry">
            <Array as="points">
              <mxPoint x="280" y="830" />
              <mxPoint x="190" y="830" />
              <mxPoint x="190" y="760" />
            </Array>
          </mxGeometry>
        </mxCell>
        <mxCell id="GSaZ2mc84zrKEOpVeXlv-53" style="edgeStyle=orthogonalEdgeStyle;rounded=0;orthogonalLoop=1;jettySize=auto;html=1;exitX=0.5;exitY=0;exitDx=0;exitDy=0;entryX=1;entryY=0.5;entryDx=0;entryDy=0;fillColor=#f8cecc;strokeColor=#b85450;strokeWidth=2;" edge="1" parent="1" source="GSaZ2mc84zrKEOpVeXlv-47" target="GSaZ2mc84zrKEOpVeXlv-37">
          <mxGeometry relative="1" as="geometry">
            <Array as="points">
              <mxPoint x="280" y="830" />
              <mxPoint x="540" y="830" />
              <mxPoint x="540" y="680" />
            </Array>
          </mxGeometry>
        </mxCell>
        <mxCell id="GSaZ2mc84zrKEOpVeXlv-54" style="edgeStyle=orthogonalEdgeStyle;rounded=0;orthogonalLoop=1;jettySize=auto;html=1;exitX=0.5;exitY=0;exitDx=0;exitDy=0;entryX=1;entryY=0.5;entryDx=0;entryDy=0;fillColor=#f8cecc;strokeColor=#b85450;strokeWidth=2;" edge="1" parent="1" source="GSaZ2mc84zrKEOpVeXlv-47" target="GSaZ2mc84zrKEOpVeXlv-38">
          <mxGeometry relative="1" as="geometry">
            <Array as="points">
              <mxPoint x="280" y="830" />
              <mxPoint x="540" y="830" />
              <mxPoint x="540" y="760" />
            </Array>
          </mxGeometry>
        </mxCell>
        <mxCell id="GSaZ2mc84zrKEOpVeXlv-55" style="edgeStyle=orthogonalEdgeStyle;rounded=0;orthogonalLoop=1;jettySize=auto;html=1;exitX=0.5;exitY=0;exitDx=0;exitDy=0;entryX=0;entryY=0.5;entryDx=0;entryDy=0;fillColor=#f8cecc;strokeColor=#b85450;strokeWidth=2;" edge="1" parent="1" source="GSaZ2mc84zrKEOpVeXlv-47" target="GSaZ2mc84zrKEOpVeXlv-44">
          <mxGeometry relative="1" as="geometry">
            <Array as="points">
              <mxPoint x="280" y="830" />
              <mxPoint x="540" y="830" />
              <mxPoint x="540" y="680" />
            </Array>
          </mxGeometry>
        </mxCell>
        <mxCell id="GSaZ2mc84zrKEOpVeXlv-56" style="edgeStyle=orthogonalEdgeStyle;rounded=0;orthogonalLoop=1;jettySize=auto;html=1;exitX=0.5;exitY=0;exitDx=0;exitDy=0;entryX=0;entryY=0.5;entryDx=0;entryDy=0;fillColor=#f8cecc;strokeColor=#b85450;strokeWidth=2;" edge="1" parent="1" source="GSaZ2mc84zrKEOpVeXlv-47" target="GSaZ2mc84zrKEOpVeXlv-43">
          <mxGeometry relative="1" as="geometry">
            <Array as="points">
              <mxPoint x="280" y="830" />
              <mxPoint x="540" y="830" />
              <mxPoint x="540" y="760" />
            </Array>
          </mxGeometry>
        </mxCell>
        <mxCell id="GSaZ2mc84zrKEOpVeXlv-47" value="resultsToJson" style="rounded=1;whiteSpace=wrap;html=1;fillColor=#f8cecc;strokeColor=#b85450;strokeWidth=2;" vertex="1" parent="1">
          <mxGeometry x="220" y="850" width="120" height="60" as="geometry" />
        </mxCell>
        <mxCell id="GSaZ2mc84zrKEOpVeXlv-57" style="edgeStyle=orthogonalEdgeStyle;rounded=0;orthogonalLoop=1;jettySize=auto;html=1;exitX=0.5;exitY=0;exitDx=0;exitDy=0;entryX=1;entryY=0.5;entryDx=0;entryDy=0;fillColor=#f8cecc;strokeColor=#b85450;strokeWidth=2;" edge="1" parent="1" source="GSaZ2mc84zrKEOpVeXlv-48" target="GSaZ2mc84zrKEOpVeXlv-34">
          <mxGeometry relative="1" as="geometry">
            <Array as="points">
              <mxPoint x="460" y="810" />
              <mxPoint x="360" y="810" />
              <mxPoint x="360" y="760" />
            </Array>
          </mxGeometry>
        </mxCell>
        <mxCell id="GSaZ2mc84zrKEOpVeXlv-58" style="edgeStyle=orthogonalEdgeStyle;rounded=0;orthogonalLoop=1;jettySize=auto;html=1;exitX=0.5;exitY=0;exitDx=0;exitDy=0;entryX=1;entryY=0.5;entryDx=0;entryDy=0;fillColor=#f8cecc;strokeColor=#b85450;strokeWidth=2;" edge="1" parent="1" source="GSaZ2mc84zrKEOpVeXlv-48" target="GSaZ2mc84zrKEOpVeXlv-33">
          <mxGeometry relative="1" as="geometry">
            <Array as="points">
              <mxPoint x="460" y="810" />
              <mxPoint x="360" y="810" />
              <mxPoint x="360" y="680" />
            </Array>
          </mxGeometry>
        </mxCell>
        <mxCell id="GSaZ2mc84zrKEOpVeXlv-59" style="edgeStyle=orthogonalEdgeStyle;rounded=0;orthogonalLoop=1;jettySize=auto;html=1;exitX=0.5;exitY=0;exitDx=0;exitDy=0;entryX=0;entryY=0.75;entryDx=0;entryDy=0;fillColor=#f8cecc;strokeColor=#b85450;strokeWidth=2;" edge="1" parent="1" source="GSaZ2mc84zrKEOpVeXlv-48" target="GSaZ2mc84zrKEOpVeXlv-38">
          <mxGeometry relative="1" as="geometry">
            <Array as="points">
              <mxPoint x="460" y="810" />
              <mxPoint x="360" y="810" />
              <mxPoint x="360" y="775" />
            </Array>
          </mxGeometry>
        </mxCell>
        <mxCell id="GSaZ2mc84zrKEOpVeXlv-60" style="edgeStyle=orthogonalEdgeStyle;rounded=0;orthogonalLoop=1;jettySize=auto;html=1;exitX=0.5;exitY=0;exitDx=0;exitDy=0;entryX=0;entryY=0.5;entryDx=0;entryDy=0;fillColor=#f8cecc;strokeColor=#b85450;strokeWidth=2;" edge="1" parent="1" source="GSaZ2mc84zrKEOpVeXlv-48" target="GSaZ2mc84zrKEOpVeXlv-37">
          <mxGeometry relative="1" as="geometry">
            <Array as="points">
              <mxPoint x="460" y="810" />
              <mxPoint x="360" y="810" />
              <mxPoint x="360" y="680" />
            </Array>
          </mxGeometry>
        </mxCell>
        <mxCell id="GSaZ2mc84zrKEOpVeXlv-61" style="edgeStyle=orthogonalEdgeStyle;rounded=0;orthogonalLoop=1;jettySize=auto;html=1;exitX=0.5;exitY=1;exitDx=0;exitDy=0;entryX=0.5;entryY=1;entryDx=0;entryDy=0;fillColor=#f8cecc;strokeColor=#b85450;strokeWidth=2;" edge="1" parent="1" source="GSaZ2mc84zrKEOpVeXlv-48" target="GSaZ2mc84zrKEOpVeXlv-30">
          <mxGeometry relative="1" as="geometry" />
        </mxCell>
        <mxCell id="GSaZ2mc84zrKEOpVeXlv-62" style="edgeStyle=orthogonalEdgeStyle;rounded=0;orthogonalLoop=1;jettySize=auto;html=1;exitX=0.5;exitY=1;exitDx=0;exitDy=0;entryX=0;entryY=0.75;entryDx=0;entryDy=0;fillColor=#f8cecc;strokeColor=#b85450;strokeWidth=2;" edge="1" parent="1" source="GSaZ2mc84zrKEOpVeXlv-48" target="GSaZ2mc84zrKEOpVeXlv-29">
          <mxGeometry relative="1" as="geometry" />
        </mxCell>
        <mxCell id="GSaZ2mc84zrKEOpVeXlv-63" style="edgeStyle=orthogonalEdgeStyle;rounded=0;orthogonalLoop=1;jettySize=auto;html=1;exitX=0.5;exitY=1;exitDx=0;exitDy=0;entryX=0.5;entryY=1;entryDx=0;entryDy=0;fillColor=#f8cecc;strokeColor=#b85450;strokeWidth=2;" edge="1" parent="1" source="GSaZ2mc84zrKEOpVeXlv-48" target="GSaZ2mc84zrKEOpVeXlv-43">
          <mxGeometry relative="1" as="geometry" />
        </mxCell>
        <mxCell id="GSaZ2mc84zrKEOpVeXlv-64" style="edgeStyle=orthogonalEdgeStyle;rounded=0;orthogonalLoop=1;jettySize=auto;html=1;exitX=0.5;exitY=1;exitDx=0;exitDy=0;entryX=1;entryY=0.5;entryDx=0;entryDy=0;fillColor=#f8cecc;strokeColor=#b85450;strokeWidth=2;" edge="1" parent="1" source="GSaZ2mc84zrKEOpVeXlv-48" target="GSaZ2mc84zrKEOpVeXlv-44">
          <mxGeometry relative="1" as="geometry" />
        </mxCell>
        <mxCell id="GSaZ2mc84zrKEOpVeXlv-48" value="runRdfQuery" style="rounded=1;whiteSpace=wrap;html=1;fillColor=#f8cecc;strokeColor=#b85450;strokeWidth=2;" vertex="1" parent="1">
          <mxGeometry x="400" y="850" width="120" height="60" as="geometry" />
        </mxCell>
        <mxCell id="GSaZ2mc84zrKEOpVeXlv-65" value="controllers.py" style="swimlane;whiteSpace=wrap;html=1;fillColor=#f8cecc;strokeColor=#b85450;glass=1;rounded=1;" vertex="1" parent="1">
          <mxGeometry x="10" y="610" width="720" height="340" as="geometry" />
        </mxCell>
        <mxCell id="GSaZ2mc84zrKEOpVeXlv-99" style="edgeStyle=orthogonalEdgeStyle;rounded=0;orthogonalLoop=1;jettySize=auto;html=1;exitX=0;exitY=0.75;exitDx=0;exitDy=0;entryX=1;entryY=0.5;entryDx=0;entryDy=0;fillColor=#ffe6cc;strokeColor=#d79b00;strokeWidth=2;" edge="1" parent="1" source="GSaZ2mc84zrKEOpVeXlv-66" target="GSaZ2mc84zrKEOpVeXlv-65">
          <mxGeometry relative="1" as="geometry" />
        </mxCell>
        <mxCell id="GSaZ2mc84zrKEOpVeXlv-66" value="constants.py" style="swimlane;fontStyle=0;childLayout=stackLayout;horizontal=1;startSize=30;horizontalStack=0;resizeParent=1;resizeParentMax=0;resizeLast=0;collapsible=1;marginBottom=0;whiteSpace=wrap;html=1;fillColor=#ffe6cc;strokeColor=#d79b00;rounded=1;strokeWidth=2;" vertex="1" parent="1">
          <mxGeometry x="800" y="250" width="140" height="210" as="geometry" />
        </mxCell>
        <mxCell id="GSaZ2mc84zrKEOpVeXlv-67" value="File Paths" style="text;strokeColor=none;fillColor=none;align=left;verticalAlign=middle;spacingLeft=4;spacingRight=4;overflow=hidden;points=[[0,0.5],[1,0.5]];portConstraint=eastwest;rotatable=0;whiteSpace=wrap;html=1;" vertex="1" parent="GSaZ2mc84zrKEOpVeXlv-66">
          <mxGeometry y="30" width="140" height="30" as="geometry" />
        </mxCell>
        <mxCell id="GSaZ2mc84zrKEOpVeXlv-68" value="Predicates as Keys" style="text;strokeColor=none;fillColor=none;align=left;verticalAlign=middle;spacingLeft=4;spacingRight=4;overflow=hidden;points=[[0,0.5],[1,0.5]];portConstraint=eastwest;rotatable=0;whiteSpace=wrap;html=1;" vertex="1" parent="GSaZ2mc84zrKEOpVeXlv-66">
          <mxGeometry y="60" width="140" height="30" as="geometry" />
        </mxCell>
        <mxCell id="GSaZ2mc84zrKEOpVeXlv-69" value="Return Keys" style="text;strokeColor=none;fillColor=none;align=left;verticalAlign=middle;spacingLeft=4;spacingRight=4;overflow=hidden;points=[[0,0.5],[1,0.5]];portConstraint=eastwest;rotatable=0;whiteSpace=wrap;html=1;" vertex="1" parent="GSaZ2mc84zrKEOpVeXlv-66">
          <mxGeometry y="90" width="140" height="30" as="geometry" />
        </mxCell>
        <mxCell id="GSaZ2mc84zrKEOpVeXlv-80" value="Person Roles" style="text;strokeColor=none;fillColor=none;align=left;verticalAlign=middle;spacingLeft=4;spacingRight=4;overflow=hidden;points=[[0,0.5],[1,0.5]];portConstraint=eastwest;rotatable=0;whiteSpace=wrap;html=1;" vertex="1" parent="GSaZ2mc84zrKEOpVeXlv-66">
          <mxGeometry y="120" width="140" height="30" as="geometry" />
        </mxCell>
        <mxCell id="GSaZ2mc84zrKEOpVeXlv-81" value="API Endpoint Values" style="text;strokeColor=none;fillColor=none;align=left;verticalAlign=middle;spacingLeft=4;spacingRight=4;overflow=hidden;points=[[0,0.5],[1,0.5]];portConstraint=eastwest;rotatable=0;whiteSpace=wrap;html=1;" vertex="1" parent="GSaZ2mc84zrKEOpVeXlv-66">
          <mxGeometry y="150" width="140" height="30" as="geometry" />
        </mxCell>
        <mxCell id="GSaZ2mc84zrKEOpVeXlv-82" value="Query Types" style="text;strokeColor=none;fillColor=none;align=left;verticalAlign=middle;spacingLeft=4;spacingRight=4;overflow=hidden;points=[[0,0.5],[1,0.5]];portConstraint=eastwest;rotatable=0;whiteSpace=wrap;html=1;" vertex="1" parent="GSaZ2mc84zrKEOpVeXlv-66">
          <mxGeometry y="180" width="140" height="30" as="geometry" />
        </mxCell>
        <mxCell id="GSaZ2mc84zrKEOpVeXlv-70" value="classes.py" style="swimlane;fontStyle=0;childLayout=stackLayout;horizontal=1;startSize=30;horizontalStack=0;resizeParent=1;resizeParentMax=0;resizeLast=0;collapsible=1;marginBottom=0;whiteSpace=wrap;html=1;fillColor=#ffe6cc;strokeColor=#d79b00;strokeWidth=2;rounded=1;" vertex="1" parent="1">
          <mxGeometry x="800" y="50" width="140" height="180" as="geometry" />
        </mxCell>
        <mxCell id="GSaZ2mc84zrKEOpVeXlv-71" value="PersonFromUser" style="text;strokeColor=none;fillColor=none;align=left;verticalAlign=middle;spacingLeft=4;spacingRight=4;overflow=hidden;points=[[0,0.5],[1,0.5]];portConstraint=eastwest;rotatable=0;whiteSpace=wrap;html=1;" vertex="1" parent="GSaZ2mc84zrKEOpVeXlv-70">
          <mxGeometry y="30" width="140" height="30" as="geometry" />
        </mxCell>
        <mxCell id="GSaZ2mc84zrKEOpVeXlv-72" value="KeyWordsFromUser" style="text;strokeColor=none;fillColor=none;align=left;verticalAlign=middle;spacingLeft=4;spacingRight=4;overflow=hidden;points=[[0,0.5],[1,0.5]];portConstraint=eastwest;rotatable=0;whiteSpace=wrap;html=1;" vertex="1" parent="GSaZ2mc84zrKEOpVeXlv-70">
          <mxGeometry y="60" width="140" height="30" as="geometry" />
        </mxCell>
        <mxCell id="GSaZ2mc84zrKEOpVeXlv-73" value="NameFromUser" style="text;strokeColor=none;fillColor=none;align=left;verticalAlign=middle;spacingLeft=4;spacingRight=4;overflow=hidden;points=[[0,0.5],[1,0.5]];portConstraint=eastwest;rotatable=0;whiteSpace=wrap;html=1;" vertex="1" parent="GSaZ2mc84zrKEOpVeXlv-70">
          <mxGeometry y="90" width="140" height="30" as="geometry" />
        </mxCell>
        <mxCell id="GSaZ2mc84zrKEOpVeXlv-78" value="FlagFromUser" style="text;strokeColor=none;fillColor=none;align=left;verticalAlign=middle;spacingLeft=4;spacingRight=4;overflow=hidden;points=[[0,0.5],[1,0.5]];portConstraint=eastwest;rotatable=0;whiteSpace=wrap;html=1;" vertex="1" parent="GSaZ2mc84zrKEOpVeXlv-70">
          <mxGeometry y="120" width="140" height="30" as="geometry" />
        </mxCell>
        <mxCell id="GSaZ2mc84zrKEOpVeXlv-79" value="IdFromUser" style="text;strokeColor=none;fillColor=none;align=left;verticalAlign=middle;spacingLeft=4;spacingRight=4;overflow=hidden;points=[[0,0.5],[1,0.5]];portConstraint=eastwest;rotatable=0;whiteSpace=wrap;html=1;" vertex="1" parent="GSaZ2mc84zrKEOpVeXlv-70">
          <mxGeometry y="150" width="140" height="30" as="geometry" />
        </mxCell>
        <mxCell id="GSaZ2mc84zrKEOpVeXlv-100" style="edgeStyle=orthogonalEdgeStyle;rounded=0;orthogonalLoop=1;jettySize=auto;html=1;fillColor=#ffe6cc;strokeColor=#d79b00;strokeWidth=2;" edge="1" parent="1" source="GSaZ2mc84zrKEOpVeXlv-74">
          <mxGeometry relative="1" as="geometry">
            <mxPoint x="730" y="780" as="targetPoint" />
          </mxGeometry>
        </mxCell>
        <mxCell id="GSaZ2mc84zrKEOpVeXlv-74" value="queries.py" style="swimlane;fontStyle=0;childLayout=stackLayout;horizontal=1;startSize=30;horizontalStack=0;resizeParent=1;resizeParentMax=0;resizeLast=0;collapsible=1;marginBottom=0;whiteSpace=wrap;html=1;fillColor=#ffe6cc;strokeColor=#d79b00;rounded=1;strokeWidth=2;" vertex="1" parent="1">
          <mxGeometry x="800" y="480" width="190" height="480" as="geometry" />
        </mxCell>
        <mxCell id="GSaZ2mc84zrKEOpVeXlv-75" value="getFilmByTitle_Query" style="text;strokeColor=none;fillColor=none;align=left;verticalAlign=middle;spacingLeft=4;spacingRight=4;overflow=hidden;points=[[0,0.5],[1,0.5]];portConstraint=eastwest;rotatable=0;whiteSpace=wrap;html=1;" vertex="1" parent="GSaZ2mc84zrKEOpVeXlv-74">
          <mxGeometry y="30" width="190" height="30" as="geometry" />
        </mxCell>
        <mxCell id="GSaZ2mc84zrKEOpVeXlv-76" value="getFilmByGenre_Query" style="text;strokeColor=none;fillColor=none;align=left;verticalAlign=middle;spacingLeft=4;spacingRight=4;overflow=hidden;points=[[0,0.5],[1,0.5]];portConstraint=eastwest;rotatable=0;whiteSpace=wrap;html=1;" vertex="1" parent="GSaZ2mc84zrKEOpVeXlv-74">
          <mxGeometry y="60" width="190" height="30" as="geometry" />
        </mxCell>
        <mxCell id="GSaZ2mc84zrKEOpVeXlv-77" value="getFilmByCollection_Query" style="text;strokeColor=none;fillColor=none;align=left;verticalAlign=middle;spacingLeft=4;spacingRight=4;overflow=hidden;points=[[0,0.5],[1,0.5]];portConstraint=eastwest;rotatable=0;whiteSpace=wrap;html=1;" vertex="1" parent="GSaZ2mc84zrKEOpVeXlv-74">
          <mxGeometry y="90" width="190" height="30" as="geometry" />
        </mxCell>
        <mxCell id="GSaZ2mc84zrKEOpVeXlv-84" value="getFilmByAdultCat_Query" style="text;strokeColor=none;fillColor=none;align=left;verticalAlign=middle;spacingLeft=4;spacingRight=4;overflow=hidden;points=[[0,0.5],[1,0.5]];portConstraint=eastwest;rotatable=0;whiteSpace=wrap;html=1;" vertex="1" parent="GSaZ2mc84zrKEOpVeXlv-74">
          <mxGeometry y="120" width="190" height="30" as="geometry" />
        </mxCell>
        <mxCell id="GSaZ2mc84zrKEOpVeXlv-85" value="getFilmByKeyword_Query" style="text;strokeColor=none;fillColor=none;align=left;verticalAlign=middle;spacingLeft=4;spacingRight=4;overflow=hidden;points=[[0,0.5],[1,0.5]];portConstraint=eastwest;rotatable=0;whiteSpace=wrap;html=1;" vertex="1" parent="GSaZ2mc84zrKEOpVeXlv-74">
          <mxGeometry y="150" width="190" height="30" as="geometry" />
        </mxCell>
        <mxCell id="GSaZ2mc84zrKEOpVeXlv-86" value="getFilmByActor_Query" style="text;strokeColor=none;fillColor=none;align=left;verticalAlign=middle;spacingLeft=4;spacingRight=4;overflow=hidden;points=[[0,0.5],[1,0.5]];portConstraint=eastwest;rotatable=0;whiteSpace=wrap;html=1;" vertex="1" parent="GSaZ2mc84zrKEOpVeXlv-74">
          <mxGeometry y="180" width="190" height="30" as="geometry" />
        </mxCell>
        <mxCell id="GSaZ2mc84zrKEOpVeXlv-87" value="getFilmByDirector_Query" style="text;strokeColor=none;fillColor=none;align=left;verticalAlign=middle;spacingLeft=4;spacingRight=4;overflow=hidden;points=[[0,0.5],[1,0.5]];portConstraint=eastwest;rotatable=0;whiteSpace=wrap;html=1;" vertex="1" parent="GSaZ2mc84zrKEOpVeXlv-74">
          <mxGeometry y="210" width="190" height="30" as="geometry" />
        </mxCell>
        <mxCell id="GSaZ2mc84zrKEOpVeXlv-88" value="getFilmByProducer_Query" style="text;strokeColor=none;fillColor=none;align=left;verticalAlign=middle;spacingLeft=4;spacingRight=4;overflow=hidden;points=[[0,0.5],[1,0.5]];portConstraint=eastwest;rotatable=0;whiteSpace=wrap;html=1;" vertex="1" parent="GSaZ2mc84zrKEOpVeXlv-74">
          <mxGeometry y="240" width="190" height="30" as="geometry" />
        </mxCell>
        <mxCell id="GSaZ2mc84zrKEOpVeXlv-89" value="getFilmBySupportingArtist_Query" style="text;strokeColor=none;fillColor=none;align=left;verticalAlign=middle;spacingLeft=4;spacingRight=4;overflow=hidden;points=[[0,0.5],[1,0.5]];portConstraint=eastwest;rotatable=0;whiteSpace=wrap;html=1;" vertex="1" parent="GSaZ2mc84zrKEOpVeXlv-74">
          <mxGeometry y="270" width="190" height="30" as="geometry" />
        </mxCell>
        <mxCell id="GSaZ2mc84zrKEOpVeXlv-90" value="getFilmByEditor_Query" style="text;strokeColor=none;fillColor=none;align=left;verticalAlign=middle;spacingLeft=4;spacingRight=4;overflow=hidden;points=[[0,0.5],[1,0.5]];portConstraint=eastwest;rotatable=0;whiteSpace=wrap;html=1;" vertex="1" parent="GSaZ2mc84zrKEOpVeXlv-74">
          <mxGeometry y="300" width="190" height="30" as="geometry" />
        </mxCell>
        <mxCell id="GSaZ2mc84zrKEOpVeXlv-91" value="getFilmBySounds_Query" style="text;strokeColor=none;fillColor=none;align=left;verticalAlign=middle;spacingLeft=4;spacingRight=4;overflow=hidden;points=[[0,0.5],[1,0.5]];portConstraint=eastwest;rotatable=0;whiteSpace=wrap;html=1;" vertex="1" parent="GSaZ2mc84zrKEOpVeXlv-74">
          <mxGeometry y="330" width="190" height="30" as="geometry" />
        </mxCell>
        <mxCell id="GSaZ2mc84zrKEOpVeXlv-92" value="getFilmByVisualEffects_Query" style="text;strokeColor=none;fillColor=none;align=left;verticalAlign=middle;spacingLeft=4;spacingRight=4;overflow=hidden;points=[[0,0.5],[1,0.5]];portConstraint=eastwest;rotatable=0;whiteSpace=wrap;html=1;" vertex="1" parent="GSaZ2mc84zrKEOpVeXlv-74">
          <mxGeometry y="360" width="190" height="30" as="geometry" />
        </mxCell>
        <mxCell id="GSaZ2mc84zrKEOpVeXlv-93" value="getFilmByLighting_Query" style="text;strokeColor=none;fillColor=none;align=left;verticalAlign=middle;spacingLeft=4;spacingRight=4;overflow=hidden;points=[[0,0.5],[1,0.5]];portConstraint=eastwest;rotatable=0;whiteSpace=wrap;html=1;" vertex="1" parent="GSaZ2mc84zrKEOpVeXlv-74">
          <mxGeometry y="390" width="190" height="30" as="geometry" />
        </mxCell>
        <mxCell id="GSaZ2mc84zrKEOpVeXlv-94" value="getFilmByWriter_Query" style="text;strokeColor=none;fillColor=none;align=left;verticalAlign=middle;spacingLeft=4;spacingRight=4;overflow=hidden;points=[[0,0.5],[1,0.5]];portConstraint=eastwest;rotatable=0;whiteSpace=wrap;html=1;" vertex="1" parent="GSaZ2mc84zrKEOpVeXlv-74">
          <mxGeometry y="420" width="190" height="30" as="geometry" />
        </mxCell>
        <mxCell id="GSaZ2mc84zrKEOpVeXlv-95" value="getFilmById" style="text;strokeColor=none;fillColor=none;align=left;verticalAlign=middle;spacingLeft=4;spacingRight=4;overflow=hidden;points=[[0,0.5],[1,0.5]];portConstraint=eastwest;rotatable=0;whiteSpace=wrap;html=1;" vertex="1" parent="GSaZ2mc84zrKEOpVeXlv-74">
          <mxGeometry y="450" width="190" height="30" as="geometry" />
        </mxCell>
        <mxCell id="GSaZ2mc84zrKEOpVeXlv-96" style="edgeStyle=orthogonalEdgeStyle;rounded=0;orthogonalLoop=1;jettySize=auto;html=1;exitX=1;exitY=0.5;exitDx=0;exitDy=0;entryX=1;entryY=0.5;entryDx=0;entryDy=0;fillColor=#ffe6cc;strokeColor=#d79b00;strokeWidth=2;" edge="1" parent="1" source="GSaZ2mc84zrKEOpVeXlv-68" target="GSaZ2mc84zrKEOpVeXlv-73">
          <mxGeometry relative="1" as="geometry" />
        </mxCell>
        <mxCell id="GSaZ2mc84zrKEOpVeXlv-97" style="edgeStyle=orthogonalEdgeStyle;rounded=0;orthogonalLoop=1;jettySize=auto;html=1;exitX=0;exitY=0.5;exitDx=0;exitDy=0;entryX=0.75;entryY=0;entryDx=0;entryDy=0;fillColor=#ffe6cc;strokeColor=#d79b00;strokeWidth=2;" edge="1" parent="1" source="GSaZ2mc84zrKEOpVeXlv-73" target="GSaZ2mc84zrKEOpVeXlv-28">
          <mxGeometry relative="1" as="geometry" />
        </mxCell>
        <mxCell id="GSaZ2mc84zrKEOpVeXlv-98" style="edgeStyle=orthogonalEdgeStyle;rounded=0;orthogonalLoop=1;jettySize=auto;html=1;exitX=0;exitY=0.5;exitDx=0;exitDy=0;entryX=0.75;entryY=0;entryDx=0;entryDy=0;fillColor=#ffe6cc;strokeColor=#d79b00;strokeWidth=2;" edge="1" parent="1" source="GSaZ2mc84zrKEOpVeXlv-68" target="GSaZ2mc84zrKEOpVeXlv-28">
          <mxGeometry relative="1" as="geometry">
            <Array as="points">
              <mxPoint x="750" y="325" />
              <mxPoint x="750" y="240" />
              <mxPoint x="545" y="240" />
            </Array>
          </mxGeometry>
        </mxCell>
        <mxCell id="GSaZ2mc84zrKEOpVeXlv-105" style="edgeStyle=orthogonalEdgeStyle;rounded=0;orthogonalLoop=1;jettySize=auto;html=1;exitX=1;exitY=0.5;exitDx=0;exitDy=0;entryX=0;entryY=0.5;entryDx=0;entryDy=0;" edge="1" parent="1" source="GSaZ2mc84zrKEOpVeXlv-101" target="GSaZ2mc84zrKEOpVeXlv-65">
          <mxGeometry relative="1" as="geometry" />
        </mxCell>
        <mxCell id="GSaZ2mc84zrKEOpVeXlv-101" value="MovieData.rdf" style="shape=process;whiteSpace=wrap;html=1;backgroundOutline=1;fillColor=#e1d5e7;strokeColor=#9673a6;rounded=1;" vertex="1" parent="1">
          <mxGeometry x="-200" y="850" width="120" height="60" as="geometry" />
        </mxCell>
        <mxCell id="GSaZ2mc84zrKEOpVeXlv-102" value="backendLogs.txt" style="shape=process;whiteSpace=wrap;html=1;backgroundOutline=1;fillColor=#e1d5e7;strokeColor=#9673a6;rounded=1;" vertex="1" parent="1">
          <mxGeometry x="-200" y="730" width="120" height="60" as="geometry" />
        </mxCell>
        <mxCell id="GSaZ2mc84zrKEOpVeXlv-103" value="Relevant Files" style="swimlane;whiteSpace=wrap;html=1;fillColor=#e1d5e7;strokeColor=#9673a6;rounded=1;strokeWidth=2;" vertex="1" parent="1">
          <mxGeometry x="-220" y="680" width="160" height="250" as="geometry" />
        </mxCell>
        <mxCell id="GSaZ2mc84zrKEOpVeXlv-108" value="Click&lt;br&gt;Movie" style="text;html=1;strokeColor=none;fillColor=none;align=center;verticalAlign=middle;whiteSpace=wrap;rounded=0;" vertex="1" parent="1">
          <mxGeometry x="300" y="160" width="60" height="30" as="geometry" />
        </mxCell>
        <mxCell id="GSaZ2mc84zrKEOpVeXlv-109" value="Movie Recommendation System - Group 6" style="swimlane;whiteSpace=wrap;html=1;fillColor=#f5f5f5;fontColor=#333333;strokeColor=#666666;rounded=1;strokeWidth=2;" vertex="1" parent="1">
          <mxGeometry x="-240" width="1250" height="980" as="geometry" />
        </mxCell>
      </root>
    </mxGraphModel>
  </diagram>
</mxfile>
